<?xml version="1.0" encoding="UTF-8"?>
<!DOCTYPE svg PUBLIC "-//W3C//DTD SVG 1.1//EN" "http://www.w3.org/Graphics/SVG/1.1/DTD/svg11.dtd">
<!-- Creator: CorelDRAW X8 -->
<svg xmlns="http://www.w3.org/2000/svg" xml:space="preserve" width="2303px" height="2303px" version="1.1" style="shape-rendering:geometricPrecision; text-rendering:geometricPrecision; image-rendering:optimizeQuality; fill-rule:evenodd; clip-rule:evenodd"
viewBox="0 0 2303 2303"
 xmlns:xlink="http://www.w3.org/1999/xlink">
 <defs>
  <style type="text/css">
   <![CDATA[
    .fil0 {fill:#3B5998}
    .fil1 {fill:#F1F2F2}
   ]]>
  </style>
 </defs>
 <g id="Слой_x0020_1">
  <metadata id="CorelCorpID_0Corel-Layer"/>
  <g id="_982325296">
   <g id="Canvas">
    <g id="facebook">
     <g id="Fill_x0020_1">
      <g>
       <path class="fil0" d="M2216 1151c0,588 -477,1065 -1065,1065 -587,0 -1064,-477 -1064,-1065 0,-587 477,-1064 1064,-1064 588,0 1065,477 1065,1064z"/>
      </g>
     </g>
     <g id="Fill_x0020_2">
      <g>
       <path class="fil1" d="M1419 1193l-190 0 0 696 -288 0 0 -696 -136 0 0 -244 136 0 0 -159c0,-113 54,-290 291,-290l213 1 0 237 -155 0c-25,0 -61,13 -61,67l0 144 215 0 -25 244z"/>
      </g>
     </g>
    </g>
   </g>
  </g>
 </g>
</svg>
