<svg width="57" height="58" viewBox="0 0 57 58" version="1.1" xmlns="http://www.w3.org/2000/svg" xmlns:xlink="http://www.w3.org/1999/xlink">
<title>four-expand-arrows</title>
<desc>Created using Figma</desc>
<g id="Canvas" transform="translate(-993 -2619)">
<g id="four-expand-arrows">
<g id="XMLID_578_">
<use xlink:href="#path0_fill" transform="translate(1024.51 2619.12)" fill="#FFFFFF"/>
</g>
<g id="XMLID_577_">
<use xlink:href="#path1_fill" transform="translate(993.067 2651.31)" fill="#FFFFFF"/>
</g>
<g id="XMLID_576_">
<use xlink:href="#path2_fill" transform="translate(993.067 2619.12)" fill="#FFFFFF"/>
</g>
<g id="XMLID_575_">
<use xlink:href="#path3_fill" transform="translate(1024.5 2651.31)" fill="#FFFFFF"/>
</g>
</g>
</g>
<defs>
<path id="path0_fill" d="M 6.02492 25.1696C 6.67913 25.8276 7.73903 25.8272 8.39288 25.1688L 16.4334 17.0707L 19.0101 19.664C 19.5393 20.197 20.3189 20.3891 21.0333 20.1649C 21.7477 19.9387 22.2787 19.3343 22.4114 18.5923L 25.3713 2.13627C 25.4761 1.54859 25.2889 0.947802 24.8683 0.527981C 24.4494 0.10627 23.851 -0.0783609 23.2694 0.0307878L 7.01327 3.09865C 6.27837 3.23803 5.68187 3.77303 5.46137 4.49218C 5.24076 5.20992 5.43322 5.99333 5.96053 6.52431L 8.53527 9.11753L 0.49076 17.2166C -0.163802 17.8757 -0.163567 18.9446 0.491347 19.6034L 6.02492 25.1696Z"/>
<path id="path1_fill" d="M 19.3745 0.493384C 18.7203 -0.164697 17.6604 -0.164461 17.0066 0.494093L 8.96642 8.59212L 6.38981 5.99878C 5.86039 5.46567 5.08092 5.2736 4.36666 5.49769C 3.65217 5.72378 3.12134 6.32823 2.98834 7.0703L 0.0284438 23.5265C -0.0760562 24.1139 0.110894 24.7147 0.531475 25.1345C 0.950413 25.5562 1.5488 25.7411 2.13029 25.6317L 18.3867 22.5639C 19.1217 22.4245 19.7178 21.8895 19.9387 21.1702C 20.1593 20.4526 19.9667 19.6693 19.4393 19.1382L 16.8647 16.545L 24.9176 8.45887C 25.5737 7.79997 25.5743 6.72986 24.9188 6.07048L 19.3745 0.493384Z"/>
<path id="path2_fill" d="M 2.98848 18.5922C 3.12113 19.3342 3.65219 19.9386 4.36656 20.1648C 5.08094 20.389 5.86053 20.1968 6.38971 19.6639L 8.96644 17.0706L 17.007 25.1687C 17.6607 25.8271 18.7206 25.8274 19.3748 25.1695L 24.9085 19.6034C 25.5634 18.9446 25.5636 17.8757 24.9092 17.2166L 16.8647 9.11754L 19.4394 6.52432C 19.9667 5.99334 20.1592 5.20993 19.9386 4.49219C 19.718 3.77304 19.1215 3.23804 18.3867 3.09866L 2.13043 0.0307981C 1.54882 -0.0783506 0.950435 0.106163 0.531497 0.527992C 0.110916 0.947812 -0.0762689 1.5486 0.028583 2.13628L 2.98848 18.5922Z"/>
<path id="path3_fill" d="M 22.4218 7.07042C 22.2888 6.32847 21.7579 5.72402 21.0434 5.4978C 20.3292 5.27384 19.5497 5.46579 19.0203 5.9989L 16.4437 8.59212L 8.4034 0.494093C 7.74965 -0.164461 6.68964 -0.164697 6.03543 0.493384L 0.491303 6.0706C -0.164197 6.72998 -0.163728 7.80008 0.492476 8.45899L 8.54543 16.5451L 5.97081 19.1383C 5.44338 19.6694 5.2508 20.4527 5.47141 21.1703C 5.69226 21.8896 6.28853 22.4246 7.02343 22.564L 23.2797 25.6318C 23.8612 25.7412 24.4596 25.5564 24.8785 25.1346C 25.2991 24.7147 25.486 24.1139 25.3815 23.5266L 22.4218 7.07042Z"/>
</defs>
</svg>
