<svg width="25" height="25" viewBox="0 0 25 25" version="1.1" xmlns="http://www.w3.org/2000/svg" xmlns:xlink="http://www.w3.org/1999/xlink">
<title>magnifying-glass</title>
<desc>Created using Figma</desc>
<g id="Canvas" transform="translate(-882 -11413)">
<g id="magnifying-glass">
<use xlink:href="#path0_fill" transform="matrix(-1 0 0 1 907 11412)" fill="#46525E"/>
</g>
</g>
<defs>
<path id="path0_fill" fill-rule="evenodd" d="M 16.156 4.57782C 12.465 0.88682 6.457 0.88682 2.766 4.57782C -0.922 8.26982 -0.922 14.2728 2.766 17.9648C 6.055 21.2498 11.172 21.6018 14.859 19.0348C 14.938 19.4018 15.117 19.7538 15.402 20.0388L 20.773 25.4138C 21.559 26.1948 22.824 26.1948 23.602 25.4138C 24.387 24.6328 24.387 23.3668 23.602 22.5858L 18.23 17.2108C 17.945 16.9258 17.594 16.7498 17.227 16.6718C 19.793 12.9798 19.441 7.86282 16.156 4.57782ZM 14.457 16.2707C 11.703 19.0237 7.21898 19.0237 4.46498 16.2707C 1.71098 13.5127 1.71098 9.03173 4.46498 6.27373C 7.21898 3.52073 11.703 3.52073 14.457 6.27373C 17.211 9.03173 17.211 13.5127 14.457 16.2707Z"/>
</defs>
</svg>
