<svg width="58" height="57" viewBox="0 0 58 57" version="1.1" xmlns="http://www.w3.org/2000/svg" xmlns:xlink="http://www.w3.org/1999/xlink">
<title>magnifying-glass-finder</title>
<desc>Created using Figma</desc>
<g id="Canvas" transform="translate(-1061 -4229)">
<g id="magnifying-glass-finder">
<g id="Shape" opacity="0.338881">
<use xlink:href="#path0_fill" transform="translate(1081.95 4238.37)" fill="#46525E"/>
</g>
<g id="Shape" opacity="0.338881">
<use xlink:href="#path1_fill" transform="translate(1061 4229.38)" fill="#46525E"/>
</g>
</g>
</g>
<defs>
<path id="path0_fill" d="M 2.992 0C 1.34 0 0 1.341 0 2.992C 0 4.646 1.34 5.984 2.992 5.984C 6.648 5.984 9.913 8.026 11.516 11.317C 12.035 12.379 13.099 12.997 14.207 12.997C 14.648 12.997 15.095 12.9 15.516 12.694C 17.002 11.971 17.62 10.18 16.895 8.693C 14.282 3.331 8.953 0 2.992 0Z"/>
<path id="path1_fill" fill-rule="evenodd" d="M 46.1641 40.1201L 56.135 50.0918C 57.5959 51.5532 57.5959 53.9209 56.135 55.3799C 55.405 56.1108 54.448 56.4761 53.49 56.4761C 52.5341 56.4761 51.575 56.1099 50.845 55.3799L 40.983 45.5181C 36.679 48.8589 31.293 50.8691 25.434 50.8691C 11.4091 50.8691 0 39.459 0 25.4351C 0 11.4102 11.4091 0 25.434 0C 39.459 0 50.869 11.4102 50.869 25.4351C 50.869 30.9072 49.116 35.9678 46.1641 40.1201ZM 25.4359 5.98584C 14.7119 5.98584 5.98596 14.7109 5.98596 25.436C 5.98596 36.1597 14.7109 44.8848 25.4359 44.8857C 30.223 44.8857 34.604 43.1387 37.996 40.2607C 39.042 39.374 39.984 38.373 40.823 37.2876C 43.361 34.002 44.886 29.8979 44.886 25.436C 44.886 14.7109 36.1599 5.98584 25.4359 5.98584Z"/>
</defs>
</svg>
