<svg width="44" height="32" viewBox="0 0 44 32" version="1.1" xmlns="http://www.w3.org/2000/svg" xmlns:xlink="http://www.w3.org/1999/xlink">
<title>mail</title>
<desc>Created using Figma</desc>
<g id="Canvas" transform="translate(-159 -11563)">
<g id="mail">
<g id="Fill 1">
<use xlink:href="#path0_fill" transform="translate(185.34 11578.1)" fill="#FFFFFF"/>
</g>
<g id="Fill 2">
<use xlink:href="#path1_fill" transform="translate(166.543 11578.1)" fill="#FFFFFF"/>
</g>
<g id="Fill 3">
<use xlink:href="#path2_fill" transform="translate(159 11563.2)" fill="#FFFFFF"/>
</g>
<g id="Fill 4">
<use xlink:href="#path3_fill" transform="translate(159.919 11564.3)" fill="#FFFFFF"/>
</g>
</g>
</g>
<defs>
<path id="path0_fill" fill-rule="evenodd" d="M 8.73158 8.93463C 8.56046 8.93463 8.3911 8.87352 8.25316 8.74431L 0.219547 1.20833C -0.0598224 0.941183 -0.0737908 0.504669 0.184626 0.218315C 0.451772 -0.0610537 0.895271 -0.0750222 1.17464 0.192125L 9.21523 7.72811C 9.4946 7.99351 9.50857 8.43701 9.24317 8.71638C 9.10698 8.8613 8.9219 8.93463 8.73158 8.93463Z"/>
<path id="path1_fill" fill-rule="evenodd" d="M 0.703719 8.93463C 0.511653 8.93463 0.328317 8.8613 0.192125 8.71638C -0.0750222 8.43701 -0.0610537 7.99351 0.218315 7.72811L 8.26066 0.192125C 8.54701 -0.0750222 8.99051 -0.0610537 9.24892 0.218315C 9.51607 0.504669 9.5021 0.941183 9.22273 1.20833L 1.18039 8.74431C 1.0442 8.87352 0.873087 8.93463 0.703719 8.93463Z"/>
<path id="path2_fill" fill-rule="evenodd" d="M 39.8258 30.7952L 3.49211 30.7952C 1.56796 30.7952 0 29.2342 0 27.3031L 0 3.49211C 0 1.56971 1.56796 0 3.49211 0L 39.8258 0C 41.7482 0 43.3179 1.56971 43.3179 3.49211L 43.3179 27.3031C 43.3179 29.2342 41.7482 30.7952 39.8258 30.7952ZM 3.49211 1.39844C 2.33972 1.39844 1.39859 2.33956 1.39859 3.49196L 1.39859 27.3029C 1.39859 28.4623 2.33972 29.3965 3.49211 29.3965L 39.8258 29.3965C 40.9852 29.3965 41.9193 28.4623 41.9193 27.3029L 41.9193 3.49196C 41.9193 2.33956 40.9852 1.39844 39.8258 1.39844L 3.49211 1.39844Z"/>
<path id="path3_fill" fill-rule="evenodd" d="M 20.7428 17.7944C 19.8086 17.7944 18.8815 17.4871 18.1796 16.8724L 0.240572 1.22602C -0.0527653 0.974587 -0.0807023 0.531088 0.172476 0.237751C 0.425654 -0.0555869 0.867407 -0.0765396 1.16074 0.169655L 19.0928 15.8161C 19.9867 16.5931 21.4936 16.5931 22.3876 15.8161L 40.2969 0.195845C 40.5902 -0.0555869 41.0267 -0.029396 41.2869 0.263942C 41.5383 0.557279 41.5121 0.993794 41.2188 1.24697L 23.3077 16.8655C 22.5988 17.4871 21.6717 17.7944 20.7428 17.7944Z"/>
</defs>
</svg>
