<svg width="90" height="77" viewBox="0 0 90 77" version="1.1" xmlns="http://www.w3.org/2000/svg" xmlns:xlink="http://www.w3.org/1999/xlink"> <g id="Canvas" transform="translate(-898 -3480)"> <g id="medium"> <g id="Shape"> <use xlink:href="#path0_fill_medium" transform="translate(957.831 3480.76)" fill="#00FD8D"/> </g> <g id="Shape"> <use xlink:href="#path1_fill_medium" transform="translate(928.075 3480.18)" fill="#00E470"/> </g> <g id="Shape"> <use xlink:href="#path2_fill_medium" transform="translate(900.384 3481.64)" fill="#00C967"/> </g> <g id="Shape"> <use xlink:href="#path3_fill_medium" transform="translate(898 3480.49)" fill="#00AD6C"/> </g> </g> </g> <defs> <path id="path0_fill_medium" d="M 27.895 76.0327L 0.208565 62.64L 1.17062e-05 1.92902C -0.00478525 0.511765 1.4656 -0.422118 2.73496 0.192043L 28.983 12.8927C 29.6438 13.2124 30.0641 13.8852 30.0641 14.623L 30.0641 74.6602C 30.0639 75.7821 28.8996 76.5188 27.895 76.0327Z"/> <path id="path1_fill_medium" d="M 29.965 63.2117L 0 48.7145L 28.8475 0.92351C 29.3571 0.0792681 30.4205 -0.238156 31.3052 0.189826L 57.92 13.0681C 58.9374 13.5605 59.31 14.829 58.7218 15.7985L 29.965 63.2117Z"/> <path id="path2_fill_medium" d="M 57.6552 61.7552L 27.6902 47.258L 0.224467 2.25369C -0.540761 0.999854 0.790736 -0.484752 2.10853 0.152854L 27.6902 12.531L 57.6552 61.7552Z"/> <path id="path3_fill_medium" d="M 27.9055 76.2999L 0.857513 63.2122C 0.333274 62.9584 0 62.4249 0 61.8397L 0 1.47656C 0 0.390284 1.12774 -0.323403 2.10084 0.147562L 30.0746 13.6832L 30.0746 74.9274C 30.0746 76.0493 28.9101 76.786 27.9055 76.2999Z"/> </defs> </svg>