<?xml version="1.0" encoding="UTF-8"?>
<!DOCTYPE svg PUBLIC "-//W3C//DTD SVG 1.1//EN" "http://www.w3.org/Graphics/SVG/1.1/DTD/svg11.dtd">
<!-- Creator: CorelDRAW X8 -->
<svg xmlns="http://www.w3.org/2000/svg" xml:space="preserve" width="60px" height="60px" version="1.1" style="shape-rendering:geometricPrecision; text-rendering:geometricPrecision; image-rendering:optimizeQuality; fill-rule:evenodd; clip-rule:evenodd"
viewBox="0 0 60 60"
 xmlns:xlink="http://www.w3.org/1999/xlink">
 <defs>
  <style type="text/css">
   <![CDATA[
    .fil0 {fill:#EEF2F5}
   ]]>
  </style>
 </defs>
 <g id="Слой_x0020_1">
  <metadata id="CorelCorpID_0Corel-Layer"/>
  <g id="_1394193008">
   <path class="fil0" d="M56 23l4 -1c-2,-8 -7,-15 -14,-20l-2 3c6,4 11,10 12,18z"/>
   <path class="fil0" d="M16 5l-2 -3c-7,5 -12,12 -14,20l4 1c1,-8 6,-14 12,-18z"/>
   <path class="fil0" d="M55 40l-4 -4 0 -9c0,-10 -6,-18 -15,-20l0 -1c0,-4 -3,-6 -6,-6 -3,0 -6,2 -6,6l0 1c-9,2 -15,10 -15,20l0 9 -4 4 0 8 -3 0 0 3 18 0c0,5 5,9 10,9 5,0 10,-4 10,-9l18 0 0 -3 -3 0 0 -8zm-46 2l3 -4 0 -11c0,-8 6,-16 15,-17l1 0 0 -4c0,-1 1,-2 2,-2 1,0 2,1 2,2l0 4 1 0c9,1 15,9 15,17l0 11 3 4 0 6 -42 0 0 -6zm14 9c1,3 4,5 7,5 3,0 6,-2 7,-5l-14 0z"/>
  </g>
 </g>
</svg>
