<svg width="83" height="87" viewBox="0 0 83 87" version="1.1" xmlns="http://www.w3.org/2000/svg" xmlns:xlink="http://www.w3.org/1999/xlink">
<title>Component</title>
<desc>Created using Figma</desc>
<g id="Canvas" transform="translate(-344 -7756)">
<g id="Component">
<g id="Shape">
<use xlink:href="#path0_fill" transform="translate(344.132 7756)" fill="#46525E"/>
</g>
<g id="Shape">
<use xlink:href="#path1_fill" transform="translate(354.049 7796.84)" fill="#46525E"/>
</g>
<g id="Shape">
<use xlink:href="#path2_fill" transform="translate(367.553 7796.84)" fill="#46525E"/>
</g>
<g id="Shape">
<use xlink:href="#path3_fill" transform="translate(382.215 7796.84)" fill="#46525E"/>
</g>
</g>
</g>
<defs>
<path id="path0_fill" fill-rule="evenodd" d="M 59.8957 0.512695L 82.2643 23.5439C 82.567 23.8555 82.7362 24.2715 82.7362 24.7041L 82.7362 80.3135C 82.7362 84.0005 79.7007 87 75.9697 87L 25.34 87C 21.609 87 18.5735 83.9985 18.5735 80.3096L 18.5735 65.25L 5.0625 65.25C 2.271 65.25 0 63.0005 0 60.2354L 0 35.1304C 0 32.3652 2.271 30.1152 5.0625 30.1152L 18.5735 30.1152L 18.5735 6.70215C 18.5735 3.00684 21.609 0 25.34 0L 58.679 0C 59.1378 0 59.5772 0.185059 59.8957 0.512695ZM 77.4601 23.4229L 59.0974 4.5166L 59.0974 23.4229L 77.4601 23.4229ZM 5.0625 61.9038C 4.13303 61.9038 3.37711 61.1553 3.37711 60.2354L 3.37711 35.1304C 3.37711 34.21 4.13321 33.4614 5.0625 33.4614L 50.658 33.4614C 51.5874 33.4614 52.3433 34.21 52.3433 35.1304L 52.3433 60.2354C 52.3433 61.1553 51.5872 61.9038 50.658 61.9038L 5.0625 61.9038ZM 75.9695 83.6538C 77.8386 83.6538 79.3591 82.1553 79.3591 80.3135L 79.3591 26.769L 57.4087 26.769C 56.4763 26.769 55.7202 26.02 55.7202 25.0962L 55.7202 3.34619L 25.34 3.34619C 23.471 3.34619 21.9504 4.85156 21.9504 6.70215L 21.9504 30.1157L 50.658 30.1157C 53.4494 30.1157 55.7204 32.3652 55.7204 35.1304L 55.7204 60.2354C 55.7204 63.0005 53.4494 65.25 50.658 65.25L 21.9504 65.25L 21.9504 80.3101C 21.9504 82.1538 23.471 83.6538 25.34 83.6538L 75.9695 83.6538Z"/>
<path id="path1_fill" fill-rule="evenodd" d="M 8.18201 0.21582C 9.01303 0.431152 9.70895 0.900391 10.2695 1.62256C 10.8301 2.34473 11.1105 3.27734 11.1107 4.42139C 11.1107 5.30322 10.9491 6.04541 10.6259 6.64648C 10.3026 7.24756 9.89209 7.71973 9.3941 8.06299C 8.89609 8.40625 8.38986 8.6333 7.8754 8.74414C 7.17624 8.88184 6.16379 8.9502 4.83801 8.9502L 2.9285 8.9502L 2.9285 14.3716L 0 14.3716L 0 0L 4.69943 0C 6.48035 0 7.64114 0.0717773 8.18201 0.21582ZM 6.84631 6.28369C 7.23557 6.1333 7.54065 5.89844 7.76154 5.57812C 7.98242 5.25781 8.09302 4.88525 8.09283 4.46045C 8.09283 3.9375 7.93784 3.50635 7.62778 3.1665C 7.3179 2.82666 6.92535 2.61426 6.4505 2.5293C 6.10101 2.46387 5.39859 2.43115 4.34326 2.43115L 2.9285 2.43115L 2.9285 6.50928L 4.53122 6.50928C 5.68552 6.50928 6.45703 6.43408 6.84631 6.28369Z"/>
<path id="path2_fill" fill-rule="evenodd" d="M 10.2992 1.59814C 10.9059 2.23193 11.3677 3.00781 11.6843 3.92627C 12.0009 4.84424 12.1591 5.97656 12.1591 7.32275C 12.1591 8.50586 12.0108 9.52539 11.714 10.3813C 11.3511 11.4272 10.8334 12.2734 10.1606 12.9204C 9.65286 13.4106 8.96692 13.793 8.10278 14.0674C 7.45645 14.27 6.5925 14.3716 5.51074 14.3716L 0 14.3716L 0 0L 5.35248 0C 6.55939 0 7.47961 0.0913086 8.11273 0.274414C 8.9635 0.522949 9.69247 0.963867 10.2992 1.59814ZM 8.06815 11.2148C 8.38147 10.9341 8.63696 10.4717 8.83487 9.82764C 9.03278 9.18408 9.13171 8.30664 9.13171 7.1958C 9.13171 6.08447 9.03278 5.23145 8.83487 4.63672C 8.63696 4.04199 8.36002 3.57812 8.00385 3.24512C 7.64767 2.91162 7.1958 2.68604 6.64841 2.56836C 6.23959 2.47705 5.43805 2.43115 4.24432 2.43115L 2.9285 2.43115L 2.9285 11.9502L 5.11496 11.9502C 5.9328 11.9502 6.52322 11.9043 6.88593 11.8125C 7.36078 11.6953 7.75485 11.4956 8.06815 11.2148Z"/>
<path id="path3_fill" d="M 9.94302 2.43124L 9.94302 0L 0 0L 0 14.3715L 2.92849 14.3715L 2.92849 8.26415L 8.98338 8.26415L 8.98338 5.83291L 2.92849 5.83291L 2.92849 2.43124L 9.94302 2.43124Z"/>
</defs>
</svg>
