<svg width="275" height="274" viewBox="0 0 275 274" version="1.1" xmlns="http://www.w3.org/2000/svg" xmlns:xlink="http://www.w3.org/1999/xlink">
<title>receive money</title>
<desc>Created using Figma</desc>
<g id="Canvas" transform="translate(-895 -11826)">
<g id="receive money">
<mask id="mask0_outline" mask-type="alpha">
<g id="Mask">
<use xlink:href="#path0_fill" transform="translate(895 11826)" fill="#FFFFFF"/>
</g>
</mask>
<g id="Mask" mask="url(#mask0_outline)">
<use xlink:href="#path0_fill" transform="translate(895 11826)" fill="#FFFFFF"/>
</g>
<g id="receive money" mask="url(#mask0_outline)">
<g id="Wallet">
<use xlink:href="#path1_fill" transform="translate(1094 11855)" fill="#547EED"/>
</g>
<g id="Send">
<use xlink:href="#path2_fill" transform="translate(1015 11966)" fill="#547EED"/>
</g>
<g id="Receive">
<use xlink:href="#path3_fill" transform="translate(1113 11966)" fill="#16A085"/>
</g>
<g id="33523 MND">
<use xlink:href="#path4_fill" transform="translate(1079 11915)" fill="#36404B"/>
</g>
<g id="+ 300 MND">
<use xlink:href="#path5_fill" transform="translate(1079 12011)" fill="#6694F1"/>
</g>
<g id="+ 120 MND">
<use xlink:href="#path6_fill" transform="translate(1079 12040)" fill="#6694F1"/>
</g>
<g id="&#226;&#128;&#148; 700 MND">
<use xlink:href="#path7_fill" transform="translate(1080 12069)" fill="#D64541"/>
</g>
<g id="Rectangle 9 Copy 4">
<mask id="mask1_outline_ins">
<use xlink:href="#path8_fill" fill="white" transform="translate(1000 11963)"/>
</mask>
<g mask="url(#mask1_outline_ins)">
<use xlink:href="#path9_stroke_2x" transform="translate(1000 11963)" fill="#638BF0"/>
</g>
</g>
<g id="Rectangle 9 Copy 5">
<mask id="mask2_outline_ins">
<use xlink:href="#path8_fill" fill="white" transform="translate(1104 11963)"/>
</mask>
<g mask="url(#mask2_outline_ins)">
<use xlink:href="#path9_stroke_2x" transform="translate(1104 11963)" fill="#16A085"/>
</g>
</g>
</g>
</g>
</g>
<defs>
<path id="path0_fill" fill-rule="evenodd" d="M 0 25C 0 11.1929 11.1929 0 25 0L 275 0L 275 274L 0 274L 0 25Z"/>
<path id="path1_fill" d="M 8.49023 24.9316L 8.98242 28.3066L 9.70312 25.2656L 14.7656 7.40625L 17.6133 7.40625L 22.5527 25.2656L 23.2559 28.3594L 23.8008 24.9141L 27.7734 7.40625L 31.166 7.40625L 24.9609 33L 21.8848 33L 16.6113 14.3496L 16.207 12.3984L 15.8027 14.3496L 10.3359 33L 7.25977 33L 1.07227 7.40625L 4.44727 7.40625L 8.49023 24.9316ZM 45.5625 33C 45.375 32.625 45.2227 31.957 45.1055 30.9961C 43.5938 32.5664 41.7891 33.3516 39.6914 33.3516C 37.8164 33.3516 36.2754 32.8242 35.0684 31.7695C 33.873 30.7031 33.2754 29.3555 33.2754 27.7266C 33.2754 25.7461 34.0254 24.2109 35.5254 23.1211C 37.0371 22.0195 39.1582 21.4688 41.8887 21.4688L 45.0527 21.4688L 45.0527 19.9746C 45.0527 18.8379 44.7129 17.9355 44.0332 17.2676C 43.3535 16.5879 42.3516 16.248 41.0273 16.248C 39.8672 16.248 38.8945 16.541 38.1094 17.127C 37.3242 17.7129 36.9316 18.4219 36.9316 19.2539L 33.6621 19.2539C 33.6621 18.3047 33.9961 17.3906 34.6641 16.5117C 35.3438 15.6211 36.2578 14.918 37.4062 14.4023C 38.5664 13.8867 39.8379 13.6289 41.2207 13.6289C 43.4121 13.6289 45.1289 14.1797 46.3711 15.2812C 47.6133 16.3711 48.2578 17.877 48.3047 19.7988L 48.3047 28.5527C 48.3047 30.2988 48.5273 31.6875 48.9727 32.7188L 48.9727 33L 45.5625 33ZM 40.166 30.5215C 41.1855 30.5215 42.1523 30.2578 43.0664 29.7305C 43.9805 29.2031 44.6426 28.5176 45.0527 27.6738L 45.0527 23.7715L 42.5039 23.7715C 38.5195 23.7715 36.5273 24.9375 36.5273 27.2695C 36.5273 28.2891 36.8672 29.0859 37.5469 29.6602C 38.2266 30.2344 39.0996 30.5215 40.166 30.5215ZM 56.9355 33L 53.6836 33L 53.6836 6L 56.9355 6L 56.9355 33ZM 65.6895 33L 62.4375 33L 62.4375 6L 65.6895 6L 65.6895 33ZM 78.8027 33.3516C 76.2246 33.3516 74.127 32.5078 72.5098 30.8203C 70.8926 29.1211 70.084 26.8535 70.084 24.0176L 70.084 23.4199C 70.084 21.5332 70.4414 19.8516 71.1562 18.375C 71.8828 16.8867 72.8906 15.7266 74.1797 14.8945C 75.4805 14.0508 76.8867 13.6289 78.3984 13.6289C 80.8711 13.6289 82.793 14.4434 84.1641 16.0723C 85.5352 17.7012 86.2207 20.0332 86.2207 23.0684L 86.2207 24.4219L 73.3359 24.4219C 73.3828 26.2969 73.9277 27.8145 74.9707 28.9746C 76.0254 30.123 77.3613 30.6973 78.9785 30.6973C 80.127 30.6973 81.0996 30.4629 81.8965 29.9941C 82.6934 29.5254 83.3906 28.9043 83.9883 28.1309L 85.9746 29.6777C 84.3809 32.127 81.9902 33.3516 78.8027 33.3516ZM 78.3984 16.3008C 77.0859 16.3008 75.9844 16.7812 75.0938 17.7422C 74.2031 18.6914 73.6523 20.0273 73.4414 21.75L 82.9688 21.75L 82.9688 21.5039C 82.875 19.8516 82.4297 18.5742 81.6328 17.6719C 80.8359 16.7578 79.7578 16.3008 78.3984 16.3008ZM 94.4121 9.375L 94.4121 13.9805L 97.9629 13.9805L 97.9629 16.4941L 94.4121 16.4941L 94.4121 28.2891C 94.4121 29.0508 94.5703 29.625 94.8867 30.0117C 95.2031 30.3867 95.7422 30.5742 96.5039 30.5742C 96.8789 30.5742 97.3945 30.5039 98.0508 30.3633L 98.0508 33C 97.1953 33.2344 96.3633 33.3516 95.5547 33.3516C 94.1016 33.3516 93.0059 32.9121 92.2676 32.0332C 91.5293 31.1543 91.1602 29.9062 91.1602 28.2891L 91.1602 16.4941L 87.6973 16.4941L 87.6973 13.9805L 91.1602 13.9805L 91.1602 9.375L 94.4121 9.375Z"/>
<path id="path2_fill" d="M 6.13184 12.3452C 4.44336 11.8599 3.21289 11.2651 2.44043 10.561C 1.6748 9.8501 1.29199 8.9751 1.29199 7.93604C 1.29199 6.76025 1.76025 5.78955 2.69678 5.02393C 3.64014 4.25146 4.86377 3.86523 6.36768 3.86523C 7.39307 3.86523 8.30566 4.06348 9.10547 4.45996C 9.91211 4.85644 10.5342 5.40332 10.9717 6.10059C 11.416 6.79785 11.6382 7.56006 11.6382 8.38721L 9.65918 8.38721C 9.65918 7.48486 9.37207 6.77734 8.79785 6.26465C 8.22363 5.74512 7.41357 5.48535 6.36768 5.48535C 5.39697 5.48535 4.63818 5.70068 4.09131 6.13135C 3.55127 6.55518 3.28125 7.14648 3.28125 7.90527C 3.28125 8.51367 3.5376 9.02979 4.05029 9.45361C 4.56982 9.87061 5.44824 10.2534 6.68555 10.6021C 7.92969 10.9507 8.90039 11.3369 9.59766 11.7607C 10.3018 12.1777 10.8213 12.6665 11.1562 13.2271C 11.498 13.7876 11.6689 14.4473 11.6689 15.2061C 11.6689 16.416 11.1973 17.3867 10.2539 18.1182C 9.31055 18.8428 8.04932 19.2051 6.47021 19.2051C 5.44482 19.2051 4.48779 19.0103 3.59912 18.6206C 2.71045 18.2241 2.02344 17.6841 1.53809 17.0005C 1.05957 16.3169 0.820312 15.541 0.820312 14.6729L 2.79932 14.6729C 2.79932 15.5752 3.13086 16.2896 3.79395 16.8159C 4.46387 17.3354 5.35596 17.5952 6.47021 17.5952C 7.50928 17.5952 8.30566 17.3833 8.85938 16.9595C 9.41309 16.5356 9.68994 15.958 9.68994 15.2266C 9.68994 14.4951 9.43359 13.9312 8.9209 13.5347C 8.4082 13.1313 7.47852 12.7349 6.13184 12.3452ZM 18.5083 19.2051C 17.0044 19.2051 15.7808 18.7129 14.8374 17.7285C 13.894 16.7373 13.4224 15.4146 13.4224 13.7603L 13.4224 13.4116C 13.4224 12.311 13.6309 11.3301 14.0479 10.4688C 14.4717 9.60059 15.0596 8.92383 15.8115 8.43848C 16.5703 7.94629 17.3906 7.7002 18.2725 7.7002C 19.7148 7.7002 20.8359 8.17529 21.6357 9.12549C 22.4355 10.0757 22.8354 11.436 22.8354 13.2065L 22.8354 13.9961L 15.3193 13.9961C 15.3467 15.0898 15.6646 15.9751 16.2729 16.6519C 16.8882 17.3218 17.6675 17.6567 18.6108 17.6567C 19.2808 17.6567 19.8481 17.52 20.313 17.2466C 20.7778 16.9731 21.1846 16.6108 21.5332 16.1597L 22.6919 17.062C 21.7622 18.4907 20.3677 19.2051 18.5083 19.2051ZM 18.2725 9.25879C 17.5068 9.25879 16.8643 9.53906 16.3447 10.0996C 15.8252 10.6533 15.5039 11.4326 15.3809 12.4375L 20.9385 12.4375L 20.9385 12.2939C 20.8838 11.3301 20.624 10.585 20.1592 10.0586C 19.6943 9.52539 19.0654 9.25879 18.2725 9.25879ZM 26.8345 7.90527L 26.896 9.2998C 27.7437 8.2334 28.8511 7.7002 30.2183 7.7002C 32.563 7.7002 33.7456 9.02295 33.7661 11.6685L 33.7661 19L 31.8691 19L 31.8691 11.6582C 31.8623 10.8584 31.6777 10.2671 31.3154 9.88428C 30.96 9.50147 30.4028 9.31006 29.644 9.31006C 29.0288 9.31006 28.4888 9.47412 28.0239 9.80225C 27.5591 10.1304 27.1968 10.561 26.937 11.0942L 26.937 19L 25.04 19L 25.04 7.90527L 26.8345 7.90527ZM 36.1655 13.3604C 36.1655 11.6582 36.5688 10.291 37.3755 9.25879C 38.1821 8.21973 39.2383 7.7002 40.5439 7.7002C 41.8428 7.7002 42.8716 8.14453 43.6304 9.0332L 43.6304 3.25L 45.5273 3.25L 45.5273 19L 43.7842 19L 43.6919 17.8105C 42.9331 18.7402 41.877 19.2051 40.5234 19.2051C 39.2383 19.2051 38.189 18.6787 37.3755 17.626C 36.5688 16.5732 36.1655 15.1992 36.1655 13.5039L 36.1655 13.3604ZM 38.0625 13.5757C 38.0625 14.8335 38.3223 15.8179 38.8418 16.5288C 39.3613 17.2397 40.0791 17.5952 40.9951 17.5952C 42.1982 17.5952 43.0767 17.0552 43.6304 15.9751L 43.6304 10.8789C 43.063 9.83301 42.1914 9.31006 41.0156 9.31006C 40.0859 9.31006 39.3613 9.66895 38.8418 10.3867C 38.3223 11.1045 38.0625 12.1675 38.0625 13.5757Z"/>
<path id="path3_fill" d="M 7.2085 12.9604L 3.70166 12.9604L 3.70166 19L 1.72266 19L 1.72266 4.07031L 6.66504 4.07031C 8.34668 4.07031 9.63867 4.45313 10.541 5.21875C 11.4502 5.98437 11.9048 7.09863 11.9048 8.56152C 11.9048 9.49121 11.6519 10.3013 11.146 10.9917C 10.647 11.6821 9.94971 12.1982 9.0542 12.54L 12.561 18.877L 12.561 19L 10.4487 19L 7.2085 12.9604ZM 3.70166 11.3506L 6.72656 11.3506C 7.7041 11.3506 8.47998 11.0977 9.0542 10.5918C 9.63525 10.0859 9.92578 9.40918 9.92578 8.56152C 9.92578 7.63867 9.64893 6.93115 9.09521 6.43896C 8.54834 5.94678 7.75537 5.69727 6.71631 5.69043L 3.70166 5.69043L 3.70166 11.3506ZM 18.98 19.2051C 17.4761 19.2051 16.2524 18.7129 15.3091 17.7285C 14.3657 16.7373 13.894 15.4146 13.894 13.7603L 13.894 13.4116C 13.894 12.311 14.1025 11.3301 14.5195 10.4688C 14.9434 9.60059 15.5313 8.92383 16.2832 8.43848C 17.042 7.94629 17.8623 7.7002 18.7441 7.7002C 20.1865 7.7002 21.3076 8.17529 22.1074 9.12549C 22.9072 10.0757 23.3071 11.436 23.3071 13.2065L 23.3071 13.9961L 15.791 13.9961C 15.8184 15.0898 16.1362 15.9751 16.7446 16.6519C 17.3599 17.3218 18.1392 17.6567 19.0825 17.6567C 19.7524 17.6567 20.3198 17.52 20.7847 17.2466C 21.2495 16.9731 21.6562 16.6108 22.0049 16.1597L 23.1636 17.062C 22.2339 18.4907 20.8394 19.2051 18.98 19.2051ZM 18.7441 9.25879C 17.9785 9.25879 17.3359 9.53906 16.8164 10.0996C 16.2969 10.6533 15.9756 11.4326 15.8525 12.4375L 21.4102 12.4375L 21.4102 12.2939C 21.3555 11.3301 21.0957 10.585 20.6309 10.0586C 20.166 9.52539 19.5371 9.25879 18.7441 9.25879ZM 29.9619 17.6567C 30.6387 17.6567 31.23 17.4517 31.7358 17.0415C 32.2417 16.6313 32.522 16.1187 32.5767 15.5034L 34.3711 15.5034C 34.3369 16.1392 34.1182 16.7441 33.7148 17.3184C 33.3115 17.8926 32.7715 18.3506 32.0947 18.6924C 31.4248 19.0342 30.7139 19.2051 29.9619 19.2051C 28.4512 19.2051 27.248 18.7026 26.3525 17.6978C 25.4639 16.686 25.0195 15.3052 25.0195 13.5552L 25.0195 13.2373C 25.0195 12.1572 25.2178 11.1968 25.6143 10.356C 26.0107 9.51514 26.5781 8.8623 27.3164 8.39746C 28.0615 7.93262 28.9399 7.7002 29.9517 7.7002C 31.1958 7.7002 32.228 8.07275 33.0483 8.81787C 33.8755 9.56299 34.3164 10.5303 34.3711 11.7197L 32.5767 11.7197C 32.522 11.002 32.2485 10.4141 31.7563 9.95605C 31.271 9.49121 30.6694 9.25879 29.9517 9.25879C 28.9878 9.25879 28.2393 9.60742 27.7061 10.3047C 27.1797 10.9951 26.9165 11.9966 26.9165 13.3091L 26.9165 13.668C 26.9165 14.9463 27.1797 15.9307 27.7061 16.6211C 28.2324 17.3115 28.9844 17.6567 29.9619 17.6567ZM 41.1079 19.2051C 39.604 19.2051 38.3804 18.7129 37.437 17.7285C 36.4937 16.7373 36.022 15.4146 36.022 13.7603L 36.022 13.4116C 36.022 12.311 36.2305 11.3301 36.6475 10.4688C 37.0713 9.60059 37.6592 8.92383 38.4111 8.43848C 39.1699 7.94629 39.9902 7.7002 40.8721 7.7002C 42.3145 7.7002 43.4355 8.17529 44.2354 9.12549C 45.0352 10.0757 45.4351 11.436 45.4351 13.2065L 45.4351 13.9961L 37.9189 13.9961C 37.9463 15.0898 38.2642 15.9751 38.8726 16.6519C 39.4878 17.3218 40.2671 17.6567 41.2104 17.6567C 41.8804 17.6567 42.4478 17.52 42.9126 17.2466C 43.3774 16.9731 43.7842 16.6108 44.1328 16.1597L 45.2915 17.062C 44.3618 18.4907 42.9673 19.2051 41.1079 19.2051ZM 40.8721 9.25879C 40.1064 9.25879 39.4639 9.53906 38.9443 10.0996C 38.4248 10.6533 38.1035 11.4326 37.9805 12.4375L 43.5381 12.4375L 43.5381 12.2939C 43.4834 11.3301 43.2236 10.585 42.7588 10.0586C 42.2939 9.52539 41.665 9.25879 40.8721 9.25879ZM 49.7007 19L 47.8037 19L 47.8037 7.90527L 49.7007 7.90527L 49.7007 19ZM 47.6499 4.9624C 47.6499 4.65479 47.7422 4.39502 47.9268 4.18311C 48.1182 3.97119 48.3984 3.86523 48.7676 3.86523C 49.1367 3.86523 49.417 3.97119 49.6084 4.18311C 49.7998 4.39502 49.8955 4.65479 49.8955 4.9624C 49.8955 5.27002 49.7998 5.52637 49.6084 5.73145C 49.417 5.93652 49.1367 6.03906 48.7676 6.03906C 48.3984 6.03906 48.1182 5.93652 47.9268 5.73145C 47.7422 5.52637 47.6499 5.27002 47.6499 4.9624ZM 56.4067 16.4263L 59.1548 7.90527L 61.0928 7.90527L 57.1143 19L 55.6685 19L 51.6489 7.90527L 53.5869 7.90527L 56.4067 16.4263ZM 67.3784 19.2051C 65.8745 19.2051 64.6509 18.7129 63.7075 17.7285C 62.7642 16.7373 62.2925 15.4146 62.2925 13.7603L 62.2925 13.4116C 62.2925 12.311 62.501 11.3301 62.918 10.4688C 63.3418 9.60059 63.9297 8.92383 64.6816 8.43848C 65.4404 7.94629 66.2607 7.7002 67.1426 7.7002C 68.585 7.7002 69.7061 8.17529 70.5059 9.12549C 71.3057 10.0757 71.7056 11.436 71.7056 13.2065L 71.7056 13.9961L 64.1895 13.9961C 64.2168 15.0898 64.5347 15.9751 65.1431 16.6519C 65.7583 17.3218 66.5376 17.6567 67.481 17.6567C 68.1509 17.6567 68.7183 17.52 69.1831 17.2466C 69.6479 16.9731 70.0547 16.6108 70.4033 16.1597L 71.562 17.062C 70.6323 18.4907 69.2378 19.2051 67.3784 19.2051ZM 67.1426 9.25879C 66.377 9.25879 65.7344 9.53906 65.2148 10.0996C 64.6953 10.6533 64.374 11.4326 64.251 12.4375L 69.8086 12.4375L 69.8086 12.2939C 69.7539 11.3301 69.4941 10.585 69.0293 10.0586C 68.5645 9.52539 67.9355 9.25879 67.1426 9.25879Z"/>
<path id="path4_fill" d="M 4.57031 12.4141L 6.19922 12.4141C 7.22266 12.3984 8.02734 12.1289 8.61328 11.6055C 9.19922 11.082 9.49219 10.375 9.49219 9.48438C 9.49219 7.48438 8.49609 6.48438 6.50391 6.48438C 5.56641 6.48438 4.81641 6.75391 4.25391 7.29297C 3.69922 7.82422 3.42188 8.53125 3.42188 9.41406L 1.25391 9.41406C 1.25391 8.0625 1.74609 6.94141 2.73047 6.05078C 3.72266 5.15234 4.98047 4.70312 6.50391 4.70312C 8.11328 4.70312 9.375 5.12891 10.2891 5.98047C 11.2031 6.83203 11.6602 8.01562 11.6602 9.53125C 11.6602 10.2734 11.418 10.9922 10.9336 11.6875C 10.457 12.3828 9.80469 12.9023 8.97656 13.2461C 9.91406 13.543 10.6367 14.0352 11.1445 14.7227C 11.6602 15.4102 11.918 16.25 11.918 17.2422C 11.918 18.7734 11.418 19.9883 10.418 20.8867C 9.41797 21.7852 8.11719 22.2344 6.51562 22.2344C 4.91406 22.2344 3.60938 21.8008 2.60156 20.9336C 1.60156 20.0664 1.10156 18.9219 1.10156 17.5L 3.28125 17.5C 3.28125 18.3984 3.57422 19.1172 4.16016 19.6562C 4.74609 20.1953 5.53125 20.4648 6.51562 20.4648C 7.5625 20.4648 8.36328 20.1914 8.91797 19.6445C 9.47266 19.0977 9.75 18.3125 9.75 17.2891C 9.75 16.2969 9.44531 15.5352 8.83594 15.0039C 8.22656 14.4727 7.34766 14.1992 6.19922 14.1836L 4.57031 14.1836L 4.57031 12.4141ZM 18.0469 12.4141L 19.6758 12.4141C 20.6992 12.3984 21.5039 12.1289 22.0898 11.6055C 22.6758 11.082 22.9688 10.375 22.9688 9.48438C 22.9688 7.48438 21.9727 6.48438 19.9805 6.48438C 19.043 6.48438 18.293 6.75391 17.7305 7.29297C 17.1758 7.82422 16.8984 8.53125 16.8984 9.41406L 14.7305 9.41406C 14.7305 8.0625 15.2227 6.94141 16.207 6.05078C 17.1992 5.15234 18.457 4.70312 19.9805 4.70312C 21.5898 4.70312 22.8516 5.12891 23.7656 5.98047C 24.6797 6.83203 25.1367 8.01562 25.1367 9.53125C 25.1367 10.2734 24.8945 10.9922 24.4102 11.6875C 23.9336 12.3828 23.2813 12.9023 22.4531 13.2461C 23.3906 13.543 24.1133 14.0352 24.6211 14.7227C 25.1367 15.4102 25.3945 16.25 25.3945 17.2422C 25.3945 18.7734 24.8945 19.9883 23.8945 20.8867C 22.8945 21.7852 21.5938 22.2344 19.9922 22.2344C 18.3906 22.2344 17.0859 21.8008 16.0781 20.9336C 15.0781 20.0664 14.5781 18.9219 14.5781 17.5L 16.7578 17.5C 16.7578 18.3984 17.0508 19.1172 17.6367 19.6562C 18.2227 20.1953 19.0078 20.4648 19.9922 20.4648C 21.0391 20.4648 21.8398 20.1914 22.3945 19.6445C 22.9492 19.0977 23.2266 18.3125 23.2266 17.2891C 23.2266 16.2969 22.9219 15.5352 22.3125 15.0039C 21.7031 14.4727 20.8242 14.1992 19.6758 14.1836L 18.0469 14.1836L 18.0469 12.4141ZM 29.3672 13.4453L 30.2344 4.9375L 38.9766 4.9375L 38.9766 6.94141L 32.0742 6.94141L 31.5586 11.5938C 32.3945 11.1016 33.3437 10.8555 34.4062 10.8555C 35.9609 10.8555 37.1953 11.3711 38.1094 12.4023C 39.0234 13.4258 39.4805 14.8125 39.4805 16.5625C 39.4805 18.3203 39.0039 19.707 38.0508 20.7227C 37.1055 21.7305 35.7812 22.2344 34.0781 22.2344C 32.5703 22.2344 31.3398 21.8164 30.3867 20.9805C 29.4336 20.1445 28.8906 18.9883 28.7578 17.5117L 30.8086 17.5117C 30.9414 18.4883 31.2891 19.2266 31.8516 19.7266C 32.4141 20.2188 33.1562 20.4648 34.0781 20.4648C 35.0859 20.4648 35.875 20.1211 36.4453 19.4336C 37.0234 18.7461 37.3125 17.7969 37.3125 16.5859C 37.3125 15.4453 37 14.5313 36.375 13.8438C 35.7578 13.1484 34.9336 12.8008 33.9023 12.8008C 32.957 12.8008 32.2148 13.0078 31.6758 13.4219L 31.1016 13.8906L 29.3672 13.4453ZM 53.0273 22L 41.8477 22L 41.8477 20.4414L 47.7539 13.8789C 48.6289 12.8867 49.2305 12.082 49.5586 11.4648C 49.8945 10.8398 50.0625 10.1953 50.0625 9.53125C 50.0625 8.64062 49.793 7.91016 49.2539 7.33984C 48.7148 6.76953 47.9961 6.48438 47.0977 6.48438C 46.0195 6.48438 45.1797 6.79297 44.5781 7.41016C 43.9844 8.01953 43.6875 8.87109 43.6875 9.96484L 41.5195 9.96484C 41.5195 8.39453 42.0234 7.125 43.0312 6.15625C 44.0469 5.1875 45.4023 4.70312 47.0977 4.70312C 48.6836 4.70312 49.9375 5.12109 50.8594 5.95703C 51.7813 6.78516 52.2422 7.89062 52.2422 9.27344C 52.2422 10.9531 51.1719 12.9531 49.0312 15.2734L 44.4609 20.2305L 53.0273 20.2305L 53.0273 22ZM 58.4766 12.4141L 60.1055 12.4141C 61.1289 12.3984 61.9336 12.1289 62.5195 11.6055C 63.1055 11.082 63.3984 10.375 63.3984 9.48438C 63.3984 7.48438 62.4023 6.48438 60.4102 6.48438C 59.4727 6.48438 58.7227 6.75391 58.1602 7.29297C 57.6055 7.82422 57.3281 8.53125 57.3281 9.41406L 55.1602 9.41406C 55.1602 8.0625 55.6523 6.94141 56.6367 6.05078C 57.6289 5.15234 58.8867 4.70312 60.4102 4.70312C 62.0195 4.70312 63.2812 5.12891 64.1953 5.98047C 65.1094 6.83203 65.5664 8.01562 65.5664 9.53125C 65.5664 10.2734 65.3242 10.9922 64.8398 11.6875C 64.3633 12.3828 63.7109 12.9023 62.8828 13.2461C 63.8203 13.543 64.543 14.0352 65.0508 14.7227C 65.5664 15.4102 65.8242 16.25 65.8242 17.2422C 65.8242 18.7734 65.3242 19.9883 64.3242 20.8867C 63.3242 21.7852 62.0234 22.2344 60.4219 22.2344C 58.8203 22.2344 57.5156 21.8008 56.5078 20.9336C 55.5078 20.0664 55.0078 18.9219 55.0078 17.5L 57.1875 17.5C 57.1875 18.3984 57.4805 19.1172 58.0664 19.6562C 58.6523 20.1953 59.4375 20.4648 60.4219 20.4648C 61.4687 20.4648 62.2695 20.1914 62.8242 19.6445C 63.3789 19.0977 63.6562 18.3125 63.6562 17.2891C 63.6562 16.2969 63.3516 15.5352 62.7422 15.0039C 62.1328 14.4727 61.2539 14.1992 60.1055 14.1836L 58.4766 14.1836L 58.4766 12.4141ZM 78.2227 4.9375L 83.8008 18.8594L 89.3789 4.9375L 92.2969 4.9375L 92.2969 22L 90.0469 22L 90.0469 15.3555L 90.2578 8.18359L 84.6562 22L 82.9336 22L 77.3438 8.21875L 77.5664 15.3555L 77.5664 22L 75.3164 22L 75.3164 4.9375L 78.2227 4.9375ZM 109.383 22L 107.121 22L 98.5312 8.85156L 98.5312 22L 96.2695 22L 96.2695 4.9375L 98.5312 4.9375L 107.145 18.1445L 107.145 4.9375L 109.383 4.9375L 109.383 22ZM 113.379 22L 113.379 4.9375L 118.195 4.9375C 119.68 4.9375 120.992 5.26562 122.133 5.92188C 123.273 6.57812 124.152 7.51172 124.77 8.72266C 125.395 9.93359 125.711 11.3242 125.719 12.8945L 125.719 13.9844C 125.719 15.5937 125.406 17.0039 124.781 18.2148C 124.164 19.4258 123.277 20.3555 122.121 21.0039C 120.973 21.6523 119.633 21.9844 118.102 22L 113.379 22ZM 115.629 6.78906L 115.629 20.1602L 117.996 20.1602C 119.73 20.1602 121.078 19.6211 122.039 18.543C 123.008 17.4648 123.492 15.9297 123.492 13.9375L 123.492 12.9414C 123.492 11.0039 123.035 9.5 122.121 8.42969C 121.215 7.35156 119.926 6.80469 118.254 6.78906L 115.629 6.78906Z"/>
<path id="path5_fill" d="M 5.88867 10.1357L 9.45703 10.1357L 9.45703 11.6738L 5.88867 11.6738L 5.88867 15.7168L 4.25391 15.7168L 4.25391 11.6738L 0.685547 11.6738L 0.685547 10.1357L 4.25391 10.1357L 4.25391 6.40039L 5.88867 6.40039L 5.88867 10.1357ZM 18.1055 9.81055L 19.3271 9.81055C 20.0947 9.79883 20.6982 9.59668 21.1377 9.2041C 21.5771 8.81152 21.7969 8.28125 21.7969 7.61328C 21.7969 6.11328 21.0498 5.36328 19.5557 5.36328C 18.8525 5.36328 18.29 5.56543 17.8682 5.96973C 17.4521 6.36816 17.2441 6.89844 17.2441 7.56055L 15.6182 7.56055C 15.6182 6.54687 15.9873 5.70605 16.7256 5.03809C 17.4697 4.36426 18.4131 4.02734 19.5557 4.02734C 20.7627 4.02734 21.709 4.34668 22.3945 4.98535C 23.0801 5.62402 23.4229 6.51172 23.4229 7.64844C 23.4229 8.20508 23.2412 8.74414 22.8779 9.26562C 22.5205 9.78711 22.0313 10.1768 21.4102 10.4346C 22.1133 10.6572 22.6553 11.0264 23.0361 11.542C 23.4229 12.0576 23.6162 12.6875 23.6162 13.4316C 23.6162 14.5801 23.2412 15.4912 22.4912 16.165C 21.7412 16.8389 20.7656 17.1758 19.5645 17.1758C 18.3633 17.1758 17.3848 16.8506 16.6289 16.2002C 15.8789 15.5498 15.5039 14.6914 15.5039 13.625L 17.1387 13.625C 17.1387 14.2988 17.3584 14.8379 17.7979 15.2422C 18.2373 15.6465 18.8262 15.8486 19.5645 15.8486C 20.3496 15.8486 20.9502 15.6436 21.3662 15.2334C 21.7822 14.8232 21.9902 14.2344 21.9902 13.4668C 21.9902 12.7227 21.7617 12.1514 21.3047 11.7529C 20.8477 11.3545 20.1885 11.1494 19.3271 11.1377L 18.1055 11.1377L 18.1055 9.81055ZM 33.873 11.542C 33.873 13.4463 33.5479 14.8613 32.8975 15.7871C 32.2471 16.7129 31.2305 17.1758 29.8477 17.1758C 28.4824 17.1758 27.4717 16.7246 26.8154 15.8223C 26.1592 14.9141 25.8193 13.5605 25.7959 11.7617L 25.7959 9.59082C 25.7959 7.70996 26.1211 6.3125 26.7715 5.39844C 27.4219 4.48438 28.4414 4.02734 29.8301 4.02734C 31.207 4.02734 32.2207 4.46973 32.8711 5.35449C 33.5215 6.2334 33.8555 7.59277 33.873 9.43262L 33.873 11.542ZM 32.2471 9.31836C 32.2471 7.94141 32.0537 6.93945 31.667 6.3125C 31.2803 5.67969 30.668 5.36328 29.8301 5.36328C 28.998 5.36328 28.3916 5.67676 28.0107 6.30371C 27.6299 6.93066 27.4336 7.89453 27.4219 9.19531L 27.4219 11.7969C 27.4219 13.1797 27.6211 14.2021 28.0195 14.8643C 28.4238 15.5205 29.0332 15.8486 29.8477 15.8486C 30.6504 15.8486 31.2451 15.5381 31.6318 14.917C 32.0244 14.2959 32.2295 13.3174 32.2471 11.9814L 32.2471 9.31836ZM 43.9805 11.542C 43.9805 13.4463 43.6553 14.8613 43.0049 15.7871C 42.3545 16.7129 41.3379 17.1758 39.9551 17.1758C 38.5898 17.1758 37.5791 16.7246 36.9229 15.8223C 36.2666 14.9141 35.9268 13.5605 35.9033 11.7617L 35.9033 9.59082C 35.9033 7.70996 36.2285 6.3125 36.8789 5.39844C 37.5293 4.48438 38.5488 4.02734 39.9375 4.02734C 41.3145 4.02734 42.3281 4.46973 42.9785 5.35449C 43.6289 6.2334 43.9629 7.59277 43.9805 9.43262L 43.9805 11.542ZM 42.3545 9.31836C 42.3545 7.94141 42.1611 6.93945 41.7744 6.3125C 41.3877 5.67969 40.7754 5.36328 39.9375 5.36328C 39.1055 5.36328 38.499 5.67676 38.1182 6.30371C 37.7373 6.93066 37.541 7.89453 37.5293 9.19531L 37.5293 11.7969C 37.5293 13.1797 37.7285 14.2021 38.127 14.8643C 38.5312 15.5205 39.1406 15.8486 39.9551 15.8486C 40.7578 15.8486 41.3525 15.5381 41.7393 14.917C 42.1318 14.2959 42.3369 13.3174 42.3545 11.9814L 42.3545 9.31836ZM 53.1299 4.20312L 57.3135 14.6445L 61.4971 4.20312L 63.6855 4.20312L 63.6855 17L 61.998 17L 61.998 12.0166L 62.1562 6.6377L 57.9551 17L 56.6631 17L 52.4707 6.66406L 52.6377 12.0166L 52.6377 17L 50.9502 17L 50.9502 4.20312L 53.1299 4.20312ZM 76.5 17L 74.8037 17L 68.3613 7.13867L 68.3613 17L 66.665 17L 66.665 4.20312L 68.3613 4.20312L 74.8213 14.1084L 74.8213 4.20312L 76.5 4.20312L 76.5 17ZM 79.4971 17L 79.4971 4.20312L 83.1094 4.20312C 84.2227 4.20312 85.207 4.44922 86.0625 4.94141C 86.918 5.43359 87.5771 6.13379 88.04 7.04199C 88.5088 7.9502 88.7461 8.99316 88.752 10.1709L 88.752 10.9883C 88.752 12.1953 88.5176 13.2529 88.0488 14.1611C 87.5859 15.0693 86.9209 15.7666 86.0537 16.2529C 85.1924 16.7393 84.1875 16.9883 83.0391 17L 79.4971 17ZM 81.1846 5.5918L 81.1846 15.6201L 82.96 15.6201C 84.2607 15.6201 85.2715 15.2158 85.9922 14.4072C 86.7188 13.5986 87.082 12.4473 87.082 10.9531L 87.082 10.2061C 87.082 8.75293 86.7393 7.625 86.0537 6.82227C 85.374 6.01367 84.4072 5.60352 83.1533 5.5918L 81.1846 5.5918Z"/>
<path id="path6_fill" d="M 5.88867 10.1357L 9.45703 10.1357L 9.45703 11.6738L 5.88867 11.6738L 5.88867 15.7168L 4.25391 15.7168L 4.25391 11.6738L 0.685547 11.6738L 0.685547 10.1357L 4.25391 10.1357L 4.25391 6.40039L 5.88867 6.40039L 5.88867 10.1357ZM 21.085 17L 19.4502 17L 19.4502 6.16309L 16.1719 7.36719L 16.1719 5.89062L 20.8301 4.1416L 21.085 4.1416L 21.085 17ZM 34.2334 17L 25.8486 17L 25.8486 15.8311L 30.2783 10.9092C 30.9346 10.165 31.3857 9.56152 31.6318 9.09863C 31.8838 8.62988 32.0098 8.14648 32.0098 7.64844C 32.0098 6.98047 31.8076 6.43262 31.4033 6.00488C 30.999 5.57715 30.46 5.36328 29.7861 5.36328C 28.9775 5.36328 28.3477 5.59473 27.8965 6.05762C 27.4512 6.51465 27.2285 7.15332 27.2285 7.97363L 25.6025 7.97363C 25.6025 6.7959 25.9805 5.84375 26.7363 5.11719C 27.498 4.39063 28.5146 4.02734 29.7861 4.02734C 30.9756 4.02734 31.916 4.34082 32.6074 4.96777C 33.2988 5.58887 33.6445 6.41797 33.6445 7.45508C 33.6445 8.71484 32.8418 10.2148 31.2363 11.9551L 27.8086 15.6729L 34.2334 15.6729L 34.2334 17ZM 43.9805 11.542C 43.9805 13.4463 43.6553 14.8613 43.0049 15.7871C 42.3545 16.7129 41.3379 17.1758 39.9551 17.1758C 38.5898 17.1758 37.5791 16.7246 36.9229 15.8223C 36.2666 14.9141 35.9268 13.5605 35.9033 11.7617L 35.9033 9.59082C 35.9033 7.70996 36.2285 6.3125 36.8789 5.39844C 37.5293 4.48438 38.5488 4.02734 39.9375 4.02734C 41.3145 4.02734 42.3281 4.46973 42.9785 5.35449C 43.6289 6.2334 43.9629 7.59277 43.9805 9.43262L 43.9805 11.542ZM 42.3545 9.31836C 42.3545 7.94141 42.1611 6.93945 41.7744 6.3125C 41.3877 5.67969 40.7754 5.36328 39.9375 5.36328C 39.1055 5.36328 38.499 5.67676 38.1182 6.30371C 37.7373 6.93066 37.541 7.89453 37.5293 9.19531L 37.5293 11.7969C 37.5293 13.1797 37.7285 14.2021 38.127 14.8643C 38.5312 15.5205 39.1406 15.8486 39.9551 15.8486C 40.7578 15.8486 41.3525 15.5381 41.7393 14.917C 42.1318 14.2959 42.3369 13.3174 42.3545 11.9814L 42.3545 9.31836ZM 53.1299 4.20312L 57.3135 14.6445L 61.4971 4.20312L 63.6855 4.20312L 63.6855 17L 61.998 17L 61.998 12.0166L 62.1562 6.6377L 57.9551 17L 56.6631 17L 52.4707 6.66406L 52.6377 12.0166L 52.6377 17L 50.9502 17L 50.9502 4.20312L 53.1299 4.20312ZM 76.5 17L 74.8037 17L 68.3613 7.13867L 68.3613 17L 66.665 17L 66.665 4.20312L 68.3613 4.20312L 74.8213 14.1084L 74.8213 4.20312L 76.5 4.20312L 76.5 17ZM 79.4971 17L 79.4971 4.20312L 83.1094 4.20312C 84.2227 4.20312 85.207 4.44922 86.0625 4.94141C 86.918 5.43359 87.5771 6.13379 88.04 7.04199C 88.5088 7.9502 88.7461 8.99316 88.752 10.1709L 88.752 10.9883C 88.752 12.1953 88.5176 13.2529 88.0488 14.1611C 87.5859 15.0693 86.9209 15.7666 86.0537 16.2529C 85.1924 16.7393 84.1875 16.9883 83.0391 17L 79.4971 17ZM 81.1846 5.5918L 81.1846 15.6201L 82.96 15.6201C 84.2607 15.6201 85.2715 15.2158 85.9922 14.4072C 86.7188 13.5986 87.082 12.4473 87.082 10.9531L 87.082 10.2061C 87.082 8.75293 86.7393 7.625 86.0537 6.82227C 85.374 6.01367 84.4072 5.60352 83.1533 5.5918L 81.1846 5.5918Z"/>
<path id="path7_fill" d="M 13.0166 11.2783L 1.27441 11.2783L 1.27441 9.95117L 13.0166 9.95117L 13.0166 11.2783ZM 27.8525 5.11719L 22.5527 17L 20.8477 17L 26.1299 5.53906L 19.2041 5.53906L 19.2041 4.20312L 27.8525 4.20312L 27.8525 5.11719ZM 37.7227 11.542C 37.7227 13.4463 37.3975 14.8613 36.7471 15.7871C 36.0967 16.7129 35.0801 17.1758 33.6973 17.1758C 32.332 17.1758 31.3213 16.7246 30.665 15.8223C 30.0088 14.9141 29.6689 13.5605 29.6455 11.7617L 29.6455 9.59082C 29.6455 7.70996 29.9707 6.3125 30.6211 5.39844C 31.2715 4.48438 32.291 4.02734 33.6797 4.02734C 35.0566 4.02734 36.0703 4.46973 36.7207 5.35449C 37.3711 6.2334 37.7051 7.59277 37.7227 9.43262L 37.7227 11.542ZM 36.0967 9.31836C 36.0967 7.94141 35.9033 6.93945 35.5166 6.3125C 35.1299 5.67969 34.5176 5.36328 33.6797 5.36328C 32.8477 5.36328 32.2412 5.67676 31.8604 6.30371C 31.4795 6.93066 31.2832 7.89453 31.2715 9.19531L 31.2715 11.7969C 31.2715 13.1797 31.4707 14.2021 31.8691 14.8643C 32.2734 15.5205 32.8828 15.8486 33.6973 15.8486C 34.5 15.8486 35.0947 15.5381 35.4814 14.917C 35.874 14.2959 36.0791 13.3174 36.0967 11.9814L 36.0967 9.31836ZM 47.8301 11.542C 47.8301 13.4463 47.5049 14.8613 46.8545 15.7871C 46.2041 16.7129 45.1875 17.1758 43.8047 17.1758C 42.4395 17.1758 41.4287 16.7246 40.7725 15.8223C 40.1162 14.9141 39.7764 13.5605 39.7529 11.7617L 39.7529 9.59082C 39.7529 7.70996 40.0781 6.3125 40.7285 5.39844C 41.3789 4.48438 42.3984 4.02734 43.7871 4.02734C 45.1641 4.02734 46.1777 4.46973 46.8281 5.35449C 47.4785 6.2334 47.8125 7.59277 47.8301 9.43262L 47.8301 11.542ZM 46.2041 9.31836C 46.2041 7.94141 46.0107 6.93945 45.624 6.3125C 45.2373 5.67969 44.625 5.36328 43.7871 5.36328C 42.9551 5.36328 42.3486 5.67676 41.9678 6.30371C 41.5869 6.93066 41.3906 7.89453 41.3789 9.19531L 41.3789 11.7969C 41.3789 13.1797 41.5781 14.2021 41.9766 14.8643C 42.3809 15.5205 42.9902 15.8486 43.8047 15.8486C 44.6074 15.8486 45.2021 15.5381 45.5889 14.917C 45.9814 14.2959 46.1865 13.3174 46.2041 11.9814L 46.2041 9.31836ZM 56.9795 4.20312L 61.1631 14.6445L 65.3467 4.20312L 67.5352 4.20312L 67.5352 17L 65.8477 17L 65.8477 12.0166L 66.0059 6.6377L 61.8047 17L 60.5127 17L 56.3203 6.66406L 56.4873 12.0166L 56.4873 17L 54.7998 17L 54.7998 4.20312L 56.9795 4.20312ZM 80.3496 17L 78.6533 17L 72.2109 7.13867L 72.2109 17L 70.5146 17L 70.5146 4.20312L 72.2109 4.20312L 78.6709 14.1084L 78.6709 4.20312L 80.3496 4.20312L 80.3496 17ZM 83.3467 17L 83.3467 4.20312L 86.959 4.20312C 88.0723 4.20312 89.0566 4.44922 89.9121 4.94141C 90.7676 5.43359 91.4268 6.13379 91.8896 7.04199C 92.3584 7.9502 92.5957 8.99316 92.6016 10.1709L 92.6016 10.9883C 92.6016 12.1953 92.3672 13.2529 91.8984 14.1611C 91.4355 15.0693 90.7705 15.7666 89.9033 16.2529C 89.042 16.7393 88.0371 16.9883 86.8887 17L 83.3467 17ZM 85.0342 5.5918L 85.0342 15.6201L 86.8096 15.6201C 88.1104 15.6201 89.1211 15.2158 89.8418 14.4072C 90.5684 13.5986 90.9316 12.4473 90.9316 10.9531L 90.9316 10.2061C 90.9316 8.75293 90.5889 7.625 89.9033 6.82227C 89.2236 6.01367 88.2568 5.60352 87.0029 5.5918L 85.0342 5.5918Z"/>
<path id="path8_fill" fill-rule="evenodd" d="M 0 5C 0 2.23858 2.23858 0 5 0L 89 0C 91.7614 0 94 2.23858 94 5L 94 27C 94 29.7614 91.7614 32 89 32L 5 32C 2.23858 32 0 29.7614 0 27L 0 5Z"/>
<path id="path9_stroke_2x" d="M 5 2L 89 2L 89 -2L 5 -2L 5 2ZM 92 5L 92 27L 96 27L 96 5L 92 5ZM 89 30L 5 30L 5 34L 89 34L 89 30ZM 2 27L 2 5L -2 5L -2 27L 2 27ZM 5 -2C 1.13401 -2 -2 1.13401 -2 5L 2 5C 2 3.34315 3.34315 2 5 2L 5 -2ZM 89 2C 90.6569 2 92 3.34315 92 5L 96 5C 96 1.13401 92.866 -2 89 -2L 89 2ZM 92 27C 92 28.6569 90.6569 30 89 30L 89 34C 92.866 34 96 30.866 96 27L 92 27ZM 5 30C 3.34315 30 2 28.6569 2 27L -2 27C -2 30.866 1.13401 34 5 34L 5 30Z"/>
</defs>
</svg>
