<svg width="71" height="71" viewBox="0 0 71 71" version="1.1" xmlns="http://www.w3.org/2000/svg" xmlns:xlink="http://www.w3.org/1999/xlink">
<title>scissors</title>
<desc>Created using Figma</desc>
<g id="Canvas" transform="translate(-625 -13490)">
<g id="scissors">
<g id="Fill 1">
<use xlink:href="#path0_fill" transform="translate(637.995 13546.7)" fill="#FFFFFF"/>
</g>
<g id="Fill 2">
<use xlink:href="#path1_fill" transform="translate(673.436 13546.7)" fill="#FFFFFF"/>
</g>
<g id="Group 6">
<mask id="mask0_outline" mask-type="alpha">
<g id="Clip 4">
<use xlink:href="#path2_fill" transform="translate(625 13490)" fill="#FFFFFF"/>
</g>
</mask>
<g id="Fill 3" mask="url(#mask0_outline)">
<use xlink:href="#path3_fill" transform="translate(659.259 13529)" fill="#FFFFFF"/>
</g>
<g id="Fill 5" mask="url(#mask0_outline)">
<use xlink:href="#path4_fill" transform="translate(625 13490)" fill="#FFFFFF"/>
</g>
</g>
<g id="Fill 7">
<use xlink:href="#path5_fill" transform="translate(659.259 13508.9)" fill="#FFFFFF"/>
</g>
<g id="Fill 8">
<use xlink:href="#path5_fill" transform="translate(659.259 13504.2)" fill="#FFFFFF"/>
</g>
<g id="Fill 9">
<use xlink:href="#path5_fill" transform="translate(659.259 13499.5)" fill="#FFFFFF"/>
</g>
<g id="Fill 10">
<use xlink:href="#path5_fill" transform="translate(659.259 13494.7)" fill="#FFFFFF"/>
</g>
<g id="Fill 11">
<use xlink:href="#path6_fill" transform="translate(637.012 13495.2)" fill="#FFFFFF"/>
</g>
<g id="Fill 12">
<use xlink:href="#path7_fill" transform="translate(645.083 13503)" fill="#FFFFFF"/>
</g>
<g id="Fill 13">
<use xlink:href="#path8_fill" transform="translate(633.27 13495.9)" fill="#FFFFFF"/>
</g>
</g>
</g>
<defs>
<path id="path0_fill" fill-rule="evenodd" d="M 4.72545 7.08774C 3.42241 7.08774 2.36273 6.02806 2.36273 4.72502C 2.36273 3.42198 3.42241 2.3623 4.72545 2.3623C 6.02849 2.3623 7.08817 3.42198 7.08817 4.72502C 7.08817 6.02806 6.02849 7.08774 4.72545 7.08774ZM 4.72544 0C 2.11936 0 0 2.11936 0 4.72544C 0 7.33152 2.11936 9.45088 4.72544 9.45088C 7.33152 9.45088 9.45088 7.33152 9.45088 4.72544C 9.45088 2.11936 7.33152 0 4.72544 0Z"/>
<path id="path1_fill" fill-rule="evenodd" d="M 4.72545 2.3623C 6.02849 2.3623 7.08817 3.42198 7.08817 4.72502C 7.08817 6.02806 6.02849 7.08774 4.72545 7.08774C 3.42241 7.08774 2.36273 6.02806 2.36273 4.72502C 2.36273 3.42198 3.42241 2.3623 4.72545 2.3623ZM 4.72544 9.45088C 7.33152 9.45088 9.45088 7.33152 9.45088 4.72544C 9.45088 2.11936 7.33152 0 4.72544 0C 2.11936 0 0 2.11936 0 4.72544C 0 7.33152 2.11936 9.45088 4.72544 9.45088Z"/>
<path id="path2_fill" fill-rule="evenodd" d="M 0 70.8727L 70.8816 70.8727L 70.8816 0L 0 0L 0 70.8727Z"/>
<path id="path3_fill" fill-rule="evenodd" d="M 0 3.54408L 2.36272 3.54408L 2.36272 0L 0 0L 0 3.54408Z"/>
<path id="path4_fill" fill-rule="evenodd" d="M 68.5189 25.9765C 67.4817 25.9033 66.9465 25.5264 66.2341 25.0243C 65.3517 24.4018 64.253 23.6268 62.2022 23.6268C 60.1525 23.6268 59.0538 24.4018 58.1714 25.0243C 57.3775 25.5843 56.8045 25.9895 55.505 25.9895C 54.2055 25.9895 53.6314 25.5843 52.8363 25.0243C 52.691 24.9227 52.541 24.8164 52.3815 24.7089C 52.3851 24.703 52.3874 24.6959 52.391 24.6888C 52.4429 24.5872 52.4843 24.4821 52.5327 24.3781C 52.619 24.1938 52.7064 24.0107 52.7796 23.8241C 52.8257 23.7059 52.8623 23.5854 52.9037 23.4661C 52.9651 23.2901 53.0277 23.1153 53.0797 22.9369C 53.1163 22.8105 53.1423 22.6841 53.173 22.5565C 53.2156 22.3828 53.2581 22.2092 53.2912 22.0343C 53.316 21.9032 53.3313 21.7721 53.3502 21.6397C 53.375 21.4673 53.3998 21.2948 53.4152 21.1223C 53.427 20.9876 53.4329 20.8541 53.4388 20.7195C 53.4471 20.5482 53.4542 20.378 53.4542 20.2067C 53.4542 20.0709 53.4483 19.9362 53.4424 19.8015C 53.4353 19.6326 53.4258 19.4637 53.4093 19.2959C 53.3963 19.1601 53.3798 19.0254 53.3609 18.8907C 53.3384 18.7241 53.3124 18.5588 53.2805 18.3934C 53.2557 18.2587 53.2274 18.1252 53.1967 17.9929C 53.1589 17.8299 53.1175 17.668 53.0714 17.5073C 53.0336 17.375 52.9946 17.2439 52.9521 17.1139C 52.9001 16.9545 52.8422 16.7973 52.782 16.6414C 52.7324 16.5138 52.6828 16.3862 52.6284 16.261C 52.5611 16.1062 52.4867 15.9539 52.4122 15.8026C 52.352 15.681 52.2917 15.5581 52.2268 15.4388C 52.1441 15.2887 52.0543 15.1423 51.9633 14.997C 51.8924 14.8824 51.8227 14.7654 51.7471 14.6532C 51.6491 14.5079 51.5416 14.3685 51.4352 14.2291C 51.3549 14.1227 51.2769 14.0152 51.1919 13.9125C 51.0749 13.7707 50.9473 13.636 50.8221 13.5002C 50.7359 13.4068 50.6544 13.3111 50.5646 13.2214C 50.4169 13.0749 50.2598 12.9378 50.1015 12.7996C 50.0212 12.7287 49.9467 12.6543 49.864 12.587C 49.6183 12.385 49.3608 12.1936 49.0914 12.0128C 48.8292 11.8368 48.5055 11.7742 48.1948 11.8392C 47.8841 11.9042 47.6135 12.0908 47.4422 12.3566L 39.3464 24.9487C 38.4816 24.3403 37.3901 23.6268 35.4243 23.6268C 33.3758 23.6268 32.2783 24.4018 31.3958 25.0243C 31.1194 25.2193 30.8701 25.3929 30.6067 25.5406C 30.6055 25.5418 30.6031 25.5418 30.602 25.5418C 30.4035 25.6516 30.1719 25.7627 29.8754 25.8466C 29.8672 25.8489 29.8589 25.8501 29.8506 25.8525C 29.7207 25.8879 29.5742 25.9174 29.4159 25.9399C 29.3816 25.9446 29.3485 25.9493 29.3143 25.9541C 29.1371 25.9753 28.9469 25.9895 28.7307 25.9895C 27.4324 25.9895 26.8594 25.5843 26.0655 25.0243C 25.1831 24.4018 24.0856 23.6268 22.0359 23.6268C 21.6094 23.6268 21.2338 23.667 20.8829 23.7248C 20.8451 23.7307 20.8061 23.7355 20.7683 23.7414C 20.3749 23.8146 20.0264 23.9198 19.7122 24.0438C 19.7051 24.0462 19.698 24.0473 19.6909 24.0497C 19.6886 24.0509 19.6874 24.0521 19.685 24.0533C 18.9975 24.3297 18.4706 24.6959 18.0075 25.0232C 17.2172 25.5843 16.643 25.9895 15.3459 25.9895C 14.0487 25.9895 13.4758 25.5843 12.6843 25.0243C 11.803 24.4018 10.7055 23.6268 8.6582 23.6268C 6.6109 23.6268 5.51224 24.4018 4.63094 25.0243C 3.92331 25.524 3.39052 25.9009 2.36273 25.9753L 2.36273 2.3623L 68.5189 2.3623L 68.5189 25.9765ZM 36.8455 33.2089L 48.7276 14.7266C 49.6987 15.6338 50.3874 16.768 50.7642 17.993C 51.2675 19.6268 51.2167 21.4225 50.5445 23.0575C 50.3768 23.4663 50.17 23.8644 49.9243 24.2471L 49.7506 24.5177L 49.7506 24.5189L 40.5053 38.8996L 36.8455 33.2089ZM 42.4404 46.2818L 41.3831 50.5122C 41.2826 50.9151 41.4008 51.3404 41.6938 51.6345L 42.8751 52.8159C 43.096 53.0368 43.3973 53.1609 43.7103 53.1609L 46.8622 53.1609L 48.001 54.9329C 48.3436 55.4645 49.0454 55.6346 49.5912 55.3145C 50.6792 54.6789 51.9137 54.3422 53.1612 54.3422C 57.0703 54.3422 60.2494 57.5213 60.2494 61.4304C 60.2494 65.3395 57.0703 68.5185 53.1612 68.5185C 51.2734 68.5185 49.4978 67.7849 48.1605 66.4523C 48.1145 66.4063 48.0648 66.3661 48.0129 66.3307L 47.9751 66.2728C 47.942 66.222 47.9054 66.1735 47.8652 66.1275C 47.3655 65.564 46.9638 64.939 46.6696 64.2692C 46.6448 64.2125 46.6153 64.157 46.581 64.105L 36.8455 48.9611L 40.5041 43.2705L 42.4404 46.2818ZM 24.3006 64.1054C 24.2675 64.1574 24.238 64.2129 24.212 64.2696C 23.9178 64.9394 23.5162 65.5655 23.0165 66.1267C 22.9763 66.1728 22.9397 66.2212 22.9066 66.2732L 22.8735 66.324C 22.8192 66.3618 22.7684 66.4043 22.7211 66.4527C 21.3838 67.7853 19.6082 68.5189 17.7204 68.5189C 13.8113 68.5189 10.6323 65.3399 10.6323 61.4308C 10.6323 57.5217 13.8113 54.3426 17.7204 54.3426C 18.9679 54.3426 20.2025 54.6793 21.2893 55.3149C 21.8327 55.635 22.538 55.4661 22.8794 54.9333L 24.0183 53.1613L 27.1713 53.1613C 27.4844 53.1613 27.7856 53.0372 28.0065 52.8151L 29.1879 51.6338C 29.482 51.3396 29.599 50.9143 29.4986 50.5115L 28.4413 46.281L 30.3775 43.2686L 34.0362 48.9603L 24.3006 64.1054ZM 35.4408 35.3936L 39.0994 41.0842L 35.4408 46.776L 31.7821 41.0853L 35.4408 35.3936ZM 32.804 26.9235C 33.5743 26.3801 34.1508 25.9902 35.4243 25.9902C 36.7096 25.9902 37.2861 26.3872 38.0682 26.9377L 35.4408 31.0252L 32.804 26.9235ZM 22.0796 25.9912C 22.0914 25.9912 22.1009 25.9924 22.1115 25.9924C 22.4092 25.9959 22.6715 26.0207 22.9042 26.0645C 22.9148 26.0668 22.9243 26.0704 22.9361 26.0715C 23.1688 26.1188 23.3755 26.1826 23.5669 26.2641C 23.574 26.2676 23.5811 26.2712 23.5882 26.2736C 23.7807 26.3574 23.9591 26.4555 24.1375 26.5677C 24.1446 26.5724 24.1505 26.5772 24.1576 26.5807C 24.336 26.6941 24.5132 26.8182 24.7034 26.9528C 25.5847 27.5778 26.6822 28.3527 28.7306 28.3527C 29.0685 28.3527 29.3721 28.3256 29.6616 28.2878C 29.7324 28.2783 29.8033 28.2677 29.8718 28.2559C 30.1754 28.2051 30.4602 28.1413 30.7165 28.0586C 30.7189 28.0574 30.7212 28.0574 30.7236 28.0574L 34.0361 33.2093L 30.3775 38.8999L 22.0796 25.9912ZM 69.7002 0L 1.18136 0C 0.529249 0 0 0.529249 0 1.18136L 0 27.1169C 0 27.71 0.439466 28.2109 1.02778 28.2888C 1.31722 28.3255 1.62319 28.3526 1.96696 28.3526C 4.01426 28.3526 5.11293 27.5777 5.99422 26.9551C 6.78809 26.3951 7.35987 25.9899 8.65819 25.9899C 9.95532 25.9899 10.5283 26.3951 11.3198 26.9551C 12.2023 27.5777 13.2986 28.3526 15.3459 28.3526C 17.3932 28.3526 18.4906 27.5777 19.3731 26.9551C 19.4972 26.8677 19.6141 26.7862 19.7311 26.707L 28.974 41.0842L 26.1778 45.4339C 26.0017 45.708 25.9462 46.0423 26.0254 46.3589L 27.0449 50.4358L 26.6822 50.7985L 23.3744 50.7985C 22.9727 50.7985 22.5982 51.0029 22.3809 51.3407L 21.4689 52.7607C 20.2851 52.248 19.0081 51.9798 17.7204 51.9798C 12.5094 51.9798 8.26952 56.2197 8.26952 61.4307C 8.26952 66.6417 12.5094 70.8816 17.7204 70.8816C 20.0878 70.8816 22.323 70.0157 24.0643 68.435C 24.2911 68.344 24.486 68.1857 24.6207 67.9766L 24.8464 67.6258C 25.4595 66.9217 25.9592 66.1432 26.3361 65.3079L 35.4408 51.1458L 44.5444 65.3068C 44.92 66.1408 45.4209 66.9193 46.0341 67.6246L 46.2597 67.9766C 46.3755 68.1562 46.5527 68.2897 46.7511 68.3759C 48.5031 69.9944 50.7642 70.8816 53.1612 70.8816C 58.3722 70.8816 62.6121 66.6417 62.6121 61.4307C 62.6121 56.2197 58.3722 51.9798 53.1612 51.9798C 51.8735 51.9798 50.5965 52.248 49.4139 52.7607L 48.5019 51.3407C 48.2845 51.0029 47.9101 50.7985 47.5072 50.7985L 44.1994 50.7985L 43.8367 50.4358L 44.8562 46.3589C 44.9354 46.0423 44.8799 45.708 44.7038 45.4327L 41.9076 41.0842L 51.1375 26.7271C 51.2486 26.8027 51.3573 26.8724 51.4742 26.9563C 52.3579 27.5777 53.4565 28.3526 55.505 28.3526C 57.5535 28.3526 58.6522 27.5777 59.5346 26.9551C 60.3285 26.3951 60.9027 25.9899 62.2021 25.9899C 63.504 25.9899 64.0782 26.3951 64.8732 26.9551C 65.7557 27.5777 66.8543 28.3526 68.9052 28.3526C 69.2537 28.3526 69.5644 28.3255 69.8574 28.2865C 70.4433 28.2073 70.8816 27.7076 70.8816 27.1158L 70.8816 1.18136C 70.8816 0.529249 70.3523 0 69.7002 0Z"/>
<path id="path5_fill" fill-rule="evenodd" d="M 0 2.36272L 2.36272 2.36272L 2.36272 0L 0 0L 0 2.36272Z"/>
<path id="path6_fill" fill-rule="evenodd" d="M 0 14.1771L 9.45073 0L 11.4168 1.31072L 1.96608 15.4876L 0 14.1771Z"/>
<path id="path7_fill" fill-rule="evenodd" d="M 3.54409 2.3623C 4.19502 2.3623 4.72545 2.89274 4.72545 3.54366C 4.72545 4.19459 4.19502 4.72502 3.54409 4.72502C 2.89316 4.72502 2.36273 4.19459 2.36273 3.54366C 2.36273 2.89274 2.89316 2.3623 3.54409 2.3623ZM 0 3.54408C 0 5.49805 1.59011 7.08816 3.54408 7.08816C 5.49805 7.08816 7.08816 5.49805 7.08816 3.54408C 7.08816 1.59011 5.49805 0 3.54408 0C 1.59011 0 0 1.59011 0 3.54408Z"/>
<path id="path8_fill" fill-rule="evenodd" d="M 3.54409 2.3623C 4.19502 2.3623 4.72545 2.89274 4.72545 3.54366C 4.72545 4.19459 4.19502 4.72502 3.54409 4.72502C 2.89316 4.72502 2.36273 4.19459 2.36273 3.54366C 2.36273 2.89274 2.89316 2.3623 3.54409 2.3623ZM 3.54408 7.08816C 5.49805 7.08816 7.08816 5.49805 7.08816 3.54408C 7.08816 1.59011 5.49805 0 3.54408 0C 1.59011 0 0 1.59011 0 3.54408C 0 5.49805 1.59011 7.08816 3.54408 7.08816Z"/>
</defs>
</svg>
