<svg width="35" height="35" viewBox="0 0 35 35" version="1.1" xmlns="http://www.w3.org/2000/svg" xmlns:xlink="http://www.w3.org/1999/xlink">
<title>send</title>
<desc>Created using Figma</desc>
<g id="Canvas" transform="translate(-268 -13483)">
<g id="send">
<mask id="mask0_outline" mask-type="alpha">
<g id="Clip 2">
<use xlink:href="#path0_fill" transform="translate(268 13483)" fill="#FFFFFF"/>
</g>
</mask>
<g id="Fill 1" mask="url(#mask0_outline)">
<use xlink:href="#path1_fill" transform="translate(268 13483)" fill="#FFFFFF"/>
</g>
</g>
</g>
<defs>
<path id="path0_fill" fill-rule="evenodd" d="M 0 34.3945L 34.4032 34.3945L 34.4032 0L 0 0L 0 34.3945Z"/>
<path id="path1_fill" fill-rule="evenodd" d="M 19.3081 32.0209L 13.8004 21.615L 31.5498 3.8584L 19.3081 32.0209ZM 2.37616 15.0884L 30.5386 2.84668L 12.7821 20.5961L 2.37616 15.0884ZM 34.4041 0.652629C 34.3969 0.595212 34.3897 0.537862 34.3682 0.480513C 34.3611 0.458998 34.3539 0.43029 34.3467 0.408776C 34.3109 0.329911 34.2606 0.258174 34.2033 0.193631C 34.1387 0.136281 34.067 0.086058 33.9881 0.0502229C 33.9666 0.043029 33.9379 0.0287084 33.9164 0.0287084C 33.8591 0.0143206 33.8017 0 33.7443 0C 33.7156 0 33.6941 0 33.6654 0C 33.6009 0 33.5291 0.0143206 33.4646 0.0358351C 33.4503 0.043029 33.436 0.043029 33.4216 0.0502229L 33.4144 0.0502229L 0.432713 14.3789C 0.0669667 14.5366 -0.0980226 14.9598 0.0597728 15.3255C 0.124316 15.4761 0.239083 15.598 0.38249 15.6698L 12.3733 22.0165L 18.7272 34.0072C 18.8491 34.2439 19.0929 34.3874 19.3583 34.3945L 19.387 34.3945C 19.6595 34.3874 19.9033 34.2153 20.018 33.9642L 34.3539 0.989667L 34.3539 0.982473C 34.3611 0.968152 34.3611 0.953832 34.3682 0.939444C 34.3897 0.874901 34.4041 0.810357 34.4041 0.738687C 34.4041 0.709979 34.4112 0.68127 34.4041 0.652629Z"/>
</defs>
</svg>
