<?xml version="1.0" encoding="UTF-8"?>
<!DOCTYPE svg PUBLIC "-//W3C//DTD SVG 1.1//EN" "http://www.w3.org/Graphics/SVG/1.1/DTD/svg11.dtd">
<!-- Creator: CorelDRAW X8 -->
<svg xmlns="http://www.w3.org/2000/svg" xml:space="preserve" width="2303px" height="2303px" version="1.1" style="shape-rendering:geometricPrecision; text-rendering:geometricPrecision; image-rendering:optimizeQuality; fill-rule:evenodd; clip-rule:evenodd"
viewBox="0 0 2303 2303"
 xmlns:xlink="http://www.w3.org/1999/xlink">
 <defs>
  <style type="text/css">
   <![CDATA[
    .fil8 {fill:#1A937D}
    .fil6 {fill:#361238}
    .fil4 {fill:#3EB890}
    .fil7 {fill:#65863A}
    .fil1 {fill:#70CADB}
    .fil5 {fill:#CC2027}
    .fil2 {fill:#E01765}
    .fil3 {fill:#E8A723}
    .fil0 {fill:#FEFEFE}
   ]]>
  </style>
 </defs>
 <g id="Слой_x0020_1">
  <metadata id="CorelCorpID_0Corel-Layer"/>
  <path class="fil0" d="M493 1198l0 0 0 0c-171,58 -388,142 -457,-100 -65,-230 149,-288 308,-341 -55,-163 -142,-377 96,-457 236,-79 299,144 354,307l305 -103c-54,-161 -140,-378 96,-458 229,-77 297,139 354,308 159,-54 379,-140 458,93l0 1c69,223 -149,285 -312,340l104 310c162,-55 385,-149 465,89l0 1c74,243 -152,292 -317,348 54,162 147,387 -93,467 -24,9 -50,13 -76,13 -198,0 -230,-179 -280,-326l-305 104c55,164 148,382 -94,463 -237,80 -299,-147 -354,-310 -158,54 -373,149 -453,-89 -78,-234 142,-298 304,-353l-103 -307zm552 155l305 -103 -104 -309c-101,35 -203,69 -305,104l104 308z"/>
  <g id="_980087808">
   <path class="fil1" d="M260 1214c-80,1 -148,-47 -173,-122 -1,-2 -2,-5 -3,-8 -27,-96 26,-195 121,-227l1521 -510c18,-5 37,-8 56,-8 82,-1 152,48 177,124l3 7c28,100 -43,189 -127,217 0,0 -16,5 -1513,517 -20,6 -41,10 -62,10l0 0z"/>
   <path class="fil2" d="M513 1962c-80,1 -149,-46 -173,-120 -1,-2 -2,-5 -3,-8 -28,-97 25,-198 120,-230l1522 -514c20,-7 40,-10 60,-10 81,-1 153,49 178,123l2 8c15,51 6,109 -23,154 -22,34 -91,64 -91,64l-1527 522c-21,7 -43,11 -65,11l0 0 0 0z"/>
   <path class="fil3" d="M1780 1966c-1,0 -1,0 -2,0 -80,0 -151,-52 -177,-128l-508 -1508 -2 -8c-28,-97 25,-197 120,-229 19,-6 39,-10 58,-10 30,0 58,7 85,20 44,22 78,61 94,108l508 1508 1 5c29,100 -24,200 -119,232 -19,6 -38,10 -58,10l0 0z"/>
   <path class="fil4" d="M1025 2220c0,0 -1,0 -2,0 -80,0 -151,-52 -177,-128l-507 -1508c-7,-19 -10,-39 -10,-60 0,-80 51,-151 127,-177 19,-6 39,-9 58,-10 1,0 2,0 2,0 80,0 152,52 177,128l508 1508c6,19 10,40 10,60 0,80 -52,152 -128,177 -18,6 -38,10 -58,10l0 0 0 0z"/>
   <polygon class="fil5" points="1530,1626 1884,1505 1768,1161 1414,1281 1530,1626 "/>
   <polygon class="fil6" points="776,1884 1130,1763 1013,1416 659,1536 "/>
   <polygon class="fil7" points="1278,877 1632,756 1517,417 1163,536 "/>
   <polygon class="fil8" points="524,1135 878,1014 762,670 407,789 524,1135 "/>
  </g>
 </g>
</svg>
