<svg width="38" height="36" viewBox="0 0 38 36" version="1.1" xmlns="http://www.w3.org/2000/svg" xmlns:xlink="http://www.w3.org/1999/xlink">
<g id="Canvas" transform="translate(-481 -5729)">
<g id="star">
<g id="Shape">
<use xlink:href="#path0_fill_str" transform="translate(481.745 5729.04)" fill="#EEF2F5"/>
</g>
</g>
</g>
<defs>
<path id="path0_fill_str" d="M 36.4031 16.2623C 37.1355 15.5438 37.3941 14.4893 37.0782 13.509C 36.7615 12.5287 35.9367 11.829 34.9233 11.6805L 25.9136 10.3628C 25.5299 10.3065 25.1983 10.0642 25.0269 9.714L 20.9989 1.497C 20.5467 0.57375 19.6287 0 18.6057 0C 17.5834 0 16.6655 0.57375 16.2132 1.497L 12.1844 9.71475C 12.0131 10.065 11.6807 10.3073 11.297 10.3635L 2.2873 11.6812C 1.27471 11.829 0.449139 12.5295 0.132473 13.5098C -0.183449 14.49 0.0751003 15.5445 0.807532 16.263L 7.32639 22.659C 7.60432 22.932 7.73173 23.325 7.66616 23.709L 6.12828 32.7405C 5.99192 33.5355 6.19906 34.3088 6.7102 34.9185C 7.50447 35.8687 8.8911 36.1582 9.99981 35.5718L 18.0573 31.3072C 18.3941 31.1295 18.818 31.131 19.1541 31.3072L 27.2123 35.5718C 27.6042 35.7795 28.0222 35.8845 28.4536 35.8845C 29.2412 35.8845 29.9878 35.532 30.5012 34.9185C 31.0131 34.3088 31.2195 33.534 31.0831 32.7405L 29.5445 23.709C 29.4789 23.3242 29.6063 22.932 29.8842 22.659L 36.4031 16.2623Z"/>
</defs>
</svg>
