<svg width="50" height="50" viewBox="0 0 50 50" version="1.1" xmlns="http://www.w3.org/2000/svg" xmlns:xlink="http://www.w3.org/1999/xlink">
<title>twitter</title>
<desc>Created using Figma</desc>
<g id="Canvas" transform="translate(-35 -13250)">
<g id="twitter">
<g id="Fill 1">
<use xlink:href="#path0_fill" transform="translate(35 13250.1)" fill="#55ACEE"/>
</g>
<g id="Fill 2">
<use xlink:href="#path1_fill" transform="translate(46.1567 13265.1)" fill="#F1F2F2"/>
</g>
</g>
</g>
<defs>
<path id="path0_fill" fill-rule="evenodd" d="M 49.8656 24.6588C 49.8656 38.2769 38.7022 49.3176 24.9328 49.3176C 11.1633 49.3176 0 38.2769 0 24.6588C 0 11.0407 11.1633 0 24.9328 0C 38.7022 0 49.8656 11.0407 49.8656 24.6588Z"/>
<path id="path1_fill" fill-rule="evenodd" d="M 29.0472 2.76429C 27.9794 3.23242 26.8294 3.55 25.625 3.69176C 26.8556 2.96154 27.7994 1.80714 28.2467 0.431319C 27.0944 1.10549 25.8183 1.5967 24.4617 1.86099C 23.3744 0.714835 21.825 0 20.1106 0C 16.8183 0 14.1517 2.64011 14.1517 5.89341C 14.1517 6.35494 14.2033 6.80604 14.3056 7.23736C 9.35333 6.99066 4.96111 4.64451 2.02278 1.07747C 1.50833 1.9489 1.21556 2.96154 1.21556 4.04121C 1.21556 6.08681 2.26778 7.89176 3.865 8.9478C 2.88833 8.91758 1.97056 8.65165 1.16556 8.20934C 1.16556 8.23517 1.16556 8.25879 1.16556 8.28462C 1.16556 11.139 3.22056 13.5214 5.94611 14.0626C 5.44722 14.1978 4.92 14.2709 4.37722 14.2709C 3.99333 14.2709 3.62 14.2341 3.255 14.1654C 4.015 16.5071 6.21556 18.211 8.82389 18.2582C 6.78389 19.8401 4.21444 20.7802 1.42167 20.7802C 0.939444 20.7802 0.464444 20.7544 0 20.6989C 2.63667 22.3709 5.76833 23.3473 9.13389 23.3473C 20.0956 23.3473 26.0917 14.3648 26.0917 6.57637C 26.0917 6.32088 26.085 6.06758 26.0744 5.81429C 27.2394 4.98352 28.2489 3.94506 29.0472 2.76429Z"/>
</defs>
</svg>
